<svg width="24" height="25" viewBox="0 0 24 25" fill="none" xmlns="http://www.w3.org/2000/svg">
<path fill-rule="evenodd" clip-rule="evenodd" d="M20 19.184H16.9231V13.5807C16.9231 12.0436 16.2715 11.1862 15.1031 11.1862C13.8315 11.1862 13.0769 12.0797 13.0769 13.5807V19.184H10V8.77645H13.0769V9.9469C13.0769 9.9469 14.0423 8.18402 16.2177 8.18402C18.3938 8.18402 20 9.56583 20 12.4255C20 15.2844 20 19.184 20 19.184ZM5.50031 6.18402C4.67151 6.18402 4 5.51221 4 4.68372C4 3.85584 4.67151 3.18402 5.50031 3.18402C6.32849 3.18402 7 3.85584 7 4.68372C7.00061 5.51221 6.32849 6.18402 5.50031 6.18402ZM4 19.184H7V9.18402H4V19.184Z" fill="#222222"/>
</svg>
