<svg width="24" height="25" viewBox="0 0 24 25" fill="none" xmlns="http://www.w3.org/2000/svg">
<path fill-rule="evenodd" clip-rule="evenodd" d="M18.8751 10.7867H12.1479C12.1479 11.4863 12.1479 12.8855 12.1436 13.5852H16.0418C15.8925 14.2848 15.3628 15.2642 14.6145 15.7574C14.6138 15.7567 14.6131 15.7616 14.6116 15.7609C13.6167 16.4179 12.3037 16.5669 11.3288 16.371C9.80069 16.0674 8.59134 14.9592 8.10032 13.5516C8.10317 13.5495 8.10532 13.5299 8.10746 13.5285C7.80012 12.6554 7.80012 11.4863 8.10746 10.7867H8.10675C8.50272 9.50085 9.74851 8.32761 11.2788 8.00649C12.5096 7.74554 13.8983 8.02818 14.9197 8.98384C15.0555 8.85092 16.7995 7.14807 16.9303 7.00955C13.4409 3.84943 7.85373 4.96111 5.7631 9.04191H5.76239C5.76239 9.04191 5.7631 9.04191 5.75882 9.0496C4.72458 11.054 4.76747 13.4158 5.76596 15.3244C5.7631 15.3265 5.76096 15.3279 5.75882 15.33C6.66368 17.086 8.31045 18.4327 10.2946 18.9455C12.4024 19.4982 15.0848 19.1204 16.8817 17.4952C16.8824 17.4959 16.8831 17.4966 16.8838 17.4973C18.4062 16.1261 19.354 13.7901 18.8751 10.7867Z" fill="#222222"/>
</svg>
