<svg width="24" height="25" viewBox="0 0 24 25" fill="none" xmlns="http://www.w3.org/2000/svg">
<path fill-rule="evenodd" clip-rule="evenodd" d="M9.032 19.184C15.0696 19.184 18.372 13.7972 18.372 9.1263C18.372 8.97296 18.372 8.82048 18.3624 8.66886C19.0048 8.1692 19.5592 7.54894 20 6.83908C19.4016 7.12509 18.7656 7.31289 18.1152 7.3956C18.8 6.95366 19.3128 6.25931 19.5584 5.44005C18.9136 5.85183 18.2088 6.14215 17.4736 6.29808C16.2304 4.87492 14.1512 4.806 12.8288 6.14473C11.9768 7.00793 11.6144 8.29498 11.8792 9.52258C9.24 9.37957 6.7808 8.0374 5.1136 5.82943C4.2424 7.4447 4.688 9.51052 6.1304 10.5477C5.608 10.5314 5.0968 10.3797 4.64 10.1058V10.1506C4.6408 11.8331 5.7424 13.2821 7.2736 13.6154C6.7904 13.7576 6.2832 13.7783 5.792 13.6757C6.2216 15.1161 7.4544 16.1025 8.8584 16.131C7.696 17.1148 6.26 17.6489 4.7816 17.6471C4.5208 17.6463 4.26 17.6299 4 17.5963C5.5016 18.6335 7.248 19.184 9.032 19.1814" fill="#222222"/>
</svg>
